<?xml version="1.0" encoding="utf-8"?>
<!-- Generator: Adobe Illustrator 17.0.0, SVG Export Plug-In . SVG Version: 6.00 Build 0)  -->
<!DOCTYPE svg PUBLIC "-//W3C//DTD SVG 1.1//EN" "http://www.w3.org/Graphics/SVG/1.1/DTD/svg11.dtd">
<svg version="1.1" id="Layer_1" xmlns="http://www.w3.org/2000/svg" xmlns:xlink="http://www.w3.org/1999/xlink" x="0px" y="0px"
	 width="350.85px" height="161.052px" viewBox="0 0 350.85 161.052" enable-background="new 0 0 350.85 161.052"
	 xml:space="preserve">
<path fill="#949494" d="M98.581,123.049c0,6.12-0.012,11.828,0.003,17.537c0.017,6.235,0.028,6.264,6.32,6.273
	c38.83,0.052,77.659,0.092,116.489,0.13c3.196,0.003,6.392-0.074,9.587-0.037c2.252,0.026,3.648-0.63,3.62-3.238
	c-0.071-6.795-0.024-13.592-0.024-20.665C189.301,123.049,143.812,123.049,98.581,123.049z M348.105,123.153
	c-13.997,0-27.645,0-40.555,0c0,6.901,0.102,13.426-0.041,19.947c-0.077,3.504,1.774,3.975,4.566,3.547
	c5.362-0.821,10.749-1.495,16.087-2.444C340.645,141.985,346.101,136.239,348.105,123.153z M26.387,122.78
	c-7.584,0-14.706-0.038-21.827,0.014c-4.357,0.032-5.422,1.612-3.518,5.54c0.721,1.489,1.966,3.245,3.388,3.785
	c6.733,2.559,13.609,4.74,21.265,7.338c0-3.515-0.08-5.872,0.022-8.221C25.826,128.712,26.107,126.195,26.387,122.78z"/>
<path fill="#34768B" d="M98.581,123.049c45.232,0,90.721,0,135.995,0c0,7.073-0.047,13.869,0.024,20.665
	c0.027,2.609-1.369,3.265-3.62,3.238c-3.195-0.037-6.391,0.04-9.587,0.037c-38.83-0.038-77.659-0.078-116.489-0.13
	c-6.292-0.008-6.303-0.038-6.32-6.273C98.569,134.877,98.581,129.168,98.581,123.049z"/>
<path fill="#0B0B0B" d="M264.51,160.312c-14.453-5.344-21.448-14.502-21.242-27.811c0.185-11.972,7.777-22.255,19.157-25.945
	c11.33-3.674,23.776,0.503,31.035,10.416c6.918,9.447,6.941,22.668-0.054,32.251c-1.496,2.049-3.34,3.844-5.024,5.757
	c-5.925,4.029-12.457,6.097-19.636,6.073C267.334,160.805,265.922,160.559,264.51,160.312z M285.654,133.32
	c0.136-8.105-6.62-14.978-14.759-15.013c-7.891-0.035-14.643,6.596-14.777,14.511c-0.134,7.911,6.38,14.755,14.263,14.987
	C278.496,148.043,285.518,141.384,285.654,133.32z"/>
<path fill="#0B0B0B" d="M45.987,156.254c-7.051-6.289-12.025-13.528-11.687-23.566c0.395-11.727,5.84-20.268,16.402-24.895
	c10.501-4.6,20.784-3.292,29.48,4.514c8.732,7.838,11.644,17.674,8.214,29.09c-0.64,2.13-1.62,4.157-2.443,6.231
	c-2.795,2.929-5.589,5.858-8.384,8.787c-4.268,1.533-8.536,3.066-12.804,4.599C58.507,159.427,52.247,157.841,45.987,156.254z
	 M76.681,133.331c0.138-8.149-6.561-14.998-14.696-15.025c-7.962-0.027-14.569,6.456-14.77,14.492
	c-0.203,8.088,6.569,15.004,14.705,15.018C69.847,147.829,76.547,141.254,76.681,133.331z"/>
<path fill="#34768B" d="M348.105,123.153c-2.004,13.085-7.46,18.831-19.943,21.05c-5.339,0.949-10.726,1.622-16.087,2.444
	c-2.792,0.428-4.643-0.043-4.566-3.547c0.143-6.52,0.041-13.046,0.041-19.947C320.46,123.153,334.108,123.153,348.105,123.153z"/>
<path fill="#34768B" d="M26.387,122.78c-0.279,3.415-0.56,5.932-0.67,8.457c-0.102,2.349-0.022,4.706-0.022,8.221
	c-7.656-2.598-14.532-4.779-21.265-7.338c-1.422-0.54-2.667-2.296-3.388-3.785c-1.904-3.929-0.839-5.508,3.518-5.54
	C11.681,122.742,18.803,122.78,26.387,122.78z"/>
<path fill="#949494" d="M22.003,70.197c3.894,1.442,4.996,3.223,3.292,6.776c-2.479,5.173-4.216,10.703-6.722,15.86
	c-0.686,1.411-2.993,2.035-4.556,3.02c-0.572-1.559-1.762-3.18-1.612-4.665C13.217,83.187,16.455,76.217,22.003,70.197z"/>
<path fill="#949494" d="M182.136,91.237c-0.039-2.843-0.32-5.712-0.024-8.52c0.166-1.571,1.2-4.283,1.995-4.339
	c3.341-0.238,6.799,0.079,10.057,0.853c0.548,0.13,0.405,3.507,0.439,5.387c0.04,2.209-0.076,4.421-0.125,6.631l0.079-0.085
	c-4.168-0.003-8.335-0.007-12.503-0.01L182.136,91.237z"/>
<path fill="#939393" d="M194.478,91.248c1.109-0.051,2.218-0.135,3.327-0.149c10.732-0.134,11.767,1.228,9.144,12.005
	c-0.272,0.146-0.534,0.383-0.82,0.418c-10.488,1.256-10.488,1.253-11.572-12.359C194.557,91.163,194.478,91.248,194.478,91.248z"/>
<path fill="#949494" d="M182.054,91.152c0.008,1.425,0.022,2.851,0.024,4.276c0.013,8.45-1.887,10.002-10.329,8.128
	c-0.892-0.198-2.031-1.412-2.218-2.326c-1.76-8.604-0.413-10.184,8.334-10.141c1.424,0.007,2.847,0.095,4.271,0.146
	C182.136,91.237,182.054,91.152,182.054,91.152z"/>
<path fill="#959595" d="M226.588,91.092c6.5,0.009,6.5,0.009,6.489,6.088c-0.012,6.51-0.046,6.085-6.937,6.637
	c-5.471,0.438-5.959-2.105-5.783-6.408C220.615,91.091,220.429,91.084,226.588,91.092z"/>
<path fill="#949494" d="M207.83,83.805c0.029-5.84,0.048-5.505,7.148-5.911c5.051-0.289,5.768,1.946,5.566,6.169
	c-0.3,6.284-0.425,6.616-6.88,6.608C207.884,90.664,207.797,90.561,207.83,83.805z"/>
<path fill="#F9A445" d="M285.654,133.32c-0.135,8.064-7.157,14.724-15.273,14.485c-7.883-0.232-14.397-7.076-14.263-14.987
	c0.134-7.915,6.886-14.546,14.777-14.511C279.034,118.342,285.79,125.215,285.654,133.32z"/>
<path fill="#F9A445" d="M76.681,133.331c-0.134,7.923-6.835,14.498-14.761,14.485c-8.136-0.014-14.908-6.929-14.705-15.018
	c0.201-8.036,6.809-14.519,14.77-14.492C70.12,118.334,76.819,125.182,76.681,133.331z"/>
<path fill="#34768B" d="M343.174,91.868c-19.232-14.591-41.058-23.526-64.265-29.444c-11.987-2.613-22.507-8.601-33.196-14.262
	c-9.952-5.271-20.061-10.247-30.101-15.354c-4.478-1.578-8.956-3.156-13.434-4.734c-9.642-2.583-19.284-5.167-28.926-7.75
	c-1.213-0.007-2.425-0.015-3.638-0.022c-4.529-0.641-9.058-1.281-13.588-1.921c-2.951,0.584-3.902-0.74-3.801-3.589
	c0.162-4.543,0.065-9.095,0.077-13.644c-5.961-1.303-11.136-0.121-15.133,4.786c-1.667,1.557-3.333,3.113-5,4.67
	c-1.553,1.383-3.106,2.765-4.659,4.148c-0.931,0.564-1.862,1.127-2.792,1.691c-1.969,3.443-5.123,4.215-8.764,3.89
	c-8.32,1.508-16.64,3.017-24.96,4.525c-6.399,2.289-12.798,4.577-19.197,6.866c-3.514,1.55-7.028,3.101-10.541,4.651
	c-1.291,0.649-2.583,1.299-3.874,1.949c-2.195,1.091-4.389,2.182-6.584,3.273c-2.457,1.472-4.835,3.103-7.387,4.386
	c-6.594,3.315-12.372,8.198-20.495,8.411c-4.815,0.126-6.669,4.381-5.979,9.598c0.205,1.55-0.002,3.616-0.892,4.775
	c-5.424,7.056-8.233,15.054-9.436,23.757c-0.16,1.158-0.628,2.719-1.482,3.262c-4.614,2.938-4.876,7.506-5.11,12.206
	c-0.147,2.959,0.816,4.362,4.066,4.299c8.144-0.159,16.294,0.008,24.44-0.095c1.325-0.017,3.177-0.319,3.878-1.206
	c7.599-9.616,17.637-14.418,29.84-15.196c-0.331-5.579-1.303-10.855-0.794-15.985c0.782-7.876-1.286-13.996-7.888-18.52
	c-1.119-0.767-1.891-2.04-3.075-3.36c25.696-15.573,53.195-23.73,82.775-25.076c1.404,0,2.808,0,4.705,0c0,11.245,0,22.319,0,33.392
	c0.967,4.24-1.989,3.83-4.564,3.831C114.552,70.083,95.706,70.182,76.863,70c-3.989-0.039-5.44,1.197-5.136,5.163
	c0.293,3.812-0.022,7.668,0.171,11.492c0.324,6.428,2.618,11.551,8.764,14.845c3.427,1.837,6.479,4.698,9.084,7.643
	c2.021,2.284,3.98,3.171,6.943,3.15c16.289-0.112,32.579-0.049,48.869-0.056c6.604-0.003,6.617-0.014,6.618-6.425
	c0.005-22.518,0.128-45.037-0.103-67.553c-0.048-4.668,1.283-6.477,5.918-5.661c9.57,1.684,19.151,3.304,28.727,4.95
	c9.962,3.773,19.923,7.546,29.885,11.319c0.223,0.153,0.47,0.238,0.74,0.256c7.822,3.969,15.682,7.867,23.442,11.953
	c2.044,1.076,5.91,1.698,4.253,5.028c-0.943,1.895-4.035,3.04-6.392,3.811c-1.88,0.615-4.113,0.168-6.19,0.168
	c-21.724,0.002-43.448,0.064-65.171-0.066c-3.584-0.021-5.166,0.841-5.091,4.758c0.21,11.018,0.167,22.043,0.041,33.063
	c-0.037,3.26,1.005,4.477,4.394,4.46c23.48-0.114,46.962-0.021,70.442-0.148c1.684-0.009,3.939-0.761,4.951-1.98
	c8.38-10.094,19.211-14.408,32.077-14.284c10.381,1.853,19.382,6.087,26.012,14.668c0.728,0.943,2.424,1.597,3.677,1.607
	c14.506,0.11,29.014,0.027,43.521,0.106c2.796,0.015,3.402-1.24,3.514-3.772C351.131,101.57,348.677,96.044,343.174,91.868z
	 M25.296,76.974c-2.479,5.173-4.216,10.703-6.722,15.86c-0.686,1.411-2.993,2.035-4.556,3.02c-0.572-1.559-1.763-3.18-1.612-4.665
	c0.812-8.002,4.049-14.971,9.598-20.991C25.898,71.639,26.999,73.42,25.296,76.974z M171.749,103.557
	c-0.892-0.198-2.031-1.412-2.218-2.326c-1.76-8.604-0.413-10.184,8.334-10.141c1.397,0.007,2.793,0.092,4.19,0.143
	c0.008,1.399,0.022,2.797,0.024,4.196C182.092,103.879,180.192,105.431,171.749,103.557z M182.133,91.153
	c-0.043-2.816-0.314-5.656-0.021-8.436c0.166-1.571,1.2-4.283,1.995-4.339c3.341-0.238,6.799,0.079,10.057,0.853
	c0.548,0.13,0.405,3.508,0.439,5.387c0.039,2.18-0.073,4.363-0.122,6.545C190.364,91.159,186.249,91.156,182.133,91.153z
	 M206.948,103.1c-0.27,0.149-0.532,0.387-0.818,0.421c-10.466,1.253-10.488,1.251-11.565-12.278c1.08-0.052,2.16-0.131,3.241-0.145
	C208.538,90.964,209.573,92.327,206.948,103.1z M213.664,90.671c-5.78-0.007-5.868-0.11-5.834-6.866
	c0.029-5.84,0.048-5.505,7.148-5.911c5.051-0.289,5.768,1.946,5.566,6.169C220.244,90.347,220.12,90.679,213.664,90.671z
	 M233.077,97.181c-0.012,6.51-0.046,6.085-6.937,6.637c-5.471,0.438-5.959-2.105-5.783-6.408c0.258-6.318,0.073-6.326,6.231-6.317
	C233.088,91.101,233.088,91.101,233.077,97.181z"/>
</svg>
