<?xml version="1.0" encoding="utf-8"?>
<!-- Generator: Adobe Illustrator 17.0.0, SVG Export Plug-In . SVG Version: 6.00 Build 0)  -->
<!DOCTYPE svg PUBLIC "-//W3C//DTD SVG 1.1//EN" "http://www.w3.org/Graphics/SVG/1.1/DTD/svg11.dtd">
<svg version="1.1" id="Layer_1" xmlns="http://www.w3.org/2000/svg" xmlns:xlink="http://www.w3.org/1999/xlink" x="0px" y="0px"
	 width="270.714px" height="271.626px" viewBox="0 0 270.714 271.626" enable-background="new 0 0 270.714 271.626"
	 xml:space="preserve">
<g>
	<path fill="#F9A445" d="M123.963,0c7.596,0,15.192,0,22.787,0c1.309,0.311,2.602,0.751,3.929,0.915
		c58.317,7.226,103.728,48.264,116.766,105.642c1.307,5.753,2.189,11.602,3.268,17.406c0,7.9,0,15.799,0,23.699
		c-0.344,1.619-0.814,3.223-1.015,4.86c-6.644,54.26-44.958,99.054-97.645,113.761c-8.286,2.313-16.862,3.588-25.304,5.343
		c-7.596,0-15.192,0-22.787,0c-1.309-0.311-2.602-0.751-3.929-0.915C61.717,263.484,16.307,222.446,3.268,165.069
		C1.961,159.316,1.079,153.467,0,147.662c0-7.9,0-15.799,0-23.699c0.344-1.619,0.814-3.223,1.015-4.86
		C7.658,64.844,45.973,20.05,98.659,5.343C106.945,3.029,115.521,1.755,123.963,0z M108.482,93.971
		c-1.728-2.384-3.746-4.613-5.127-7.184c-3.662-6.819-6.552-14.101-10.682-20.606c-4.32-6.805-4.459-12.961-0.996-20.092
		c2.883-5.937,4.761-12.366-0.444-18.468c-1.004-1.177-1.308-3.048-1.667-4.659c-0.716-3.211-2.31-4.511-5.515-2.984
		c-3.667,1.747-7.445,3.293-10.985,5.267C17.475,56.248-6.059,124.783,18.34,184.457c24.56,60.067,91.369,91.887,153.389,72.985
		c2.064-0.629,4.57-1.585,5.705-3.205c8.275-11.807,16.34-23.764,24.255-35.817c1.801-2.743,3.159-5.936,3.99-9.113
		c0.896-3.423,0.393-6.631-2.669-9.467c-3.259-3.02-6.229-6.588-8.466-10.418c-3.046-5.215-5.306-10.893-7.825-16.408
		c-0.331-0.725-0.394-1.697-0.248-2.494c0.512-2.81,0.901-5.688,1.85-8.358c0.879-2.472,1.982-5.133,3.758-6.961
		c3.468-3.569,5.434-10.156,3.31-14.542c-0.562-1.16-2.378-2.801-3.177-2.585c-6.215,1.677-10.314-2.171-14.101-5.626
		c-10.455-9.538-22.858-14.469-36.526-16.859c-10.268-1.795-17.422-6.946-21.928-16.925c-3.234-7.163-8.853-13.253-13.471-19.778
		c-0.362-0.511-1.221-0.671-2.824-1.495C103.187,84.099,108.241,88.159,108.482,93.971z M260.495,153.814
		C270.998,87.43,224.103,19.822,156.849,11.065c-4.365,3.972-7.964,7.247-11.563,10.521c0.199,0.402,0.397,0.803,0.596,1.205
		c9.46-1.035,15.022,6.7,22.44,10.259c0.38-0.339,0.76-0.678,1.141-1.016c-1.892-4.85-3.783-9.701-6.068-15.56
		c4.546,1.494,8.556,4.029,12.425,3.829c8.003-0.413,12.698,5.974,19.392,8.054c1.29,0.401,1.66,3.763,2.454,5.759
		c-1.538,0.307-3.139,0.44-4.6,0.963c-1.919,0.688-3.728,1.682-5.584,2.545c0.147,0.554,0.295,1.108,0.442,1.662
		c2.896-3.58,4.705-1.791,6.867,0.403c1.622,1.646,3.894,2.651,6.595,4.409c-1.02,0.449-2.612,1.725-4.203,1.724
		c-2.769-0.002-4.304,0.918-4.947,3.571c-0.206,0.848-0.514,2.146-1.094,2.356c-6.304,2.283-5.507,7.086-4.587,12.082
		c0.512,2.779-0.262,5.014-3.136,6.333c-4.749,2.18-5.427,3.949-3.499,8.898c1.045,2.683,2.501,5.21,3.474,7.914
		c0.396,1.1,0,2.485-0.035,3.741c-1.098-0.537-2.438-0.838-3.239-1.663c-1.362-1.403-2.536-3.046-3.52-4.745
		c-3.127-5.398-10.101-7.064-15.767-3.066c-1.175,0.829-3.17,1.201-4.576,0.875c-6.319-1.468-11.088,0.935-13.11,7.042
		c-1.829,5.524-0.973,10.765,1.737,15.821c2.245,4.188,5.561,5.865,9.773,3.812c2.856-1.392,4.991-4.197,7.664-6.061
		c1.288-0.898,3.238-1.722,4.577-1.377c0.968,0.25,1.978,2.482,1.979,3.832c0.002,2.067-0.845,4.136-1.336,6.203
		c-1.295,5.453-0.344,6.816,5.139,6.381c4.331-0.344,6.613,1.461,7.364,5.565c0.3,1.642,0.518,3.301,0.873,4.931
		c1.204,5.517,3.044,7.119,8.508,6.346c2.742-0.388,5.448-1.663,7.945-2.968c2.674-1.398,5.014-3.419,7.624-4.958
		c3.035-1.79,5.922-1.693,8.808,0.754c1.03,0.873,3.064,1.383,4.337,1.014c7.274-2.111,13.06-0.109,18.004,5.45
		c1.571,1.766,3.642,4.082,5.657,4.267c5.336,0.49,6.714,3.685,7.564,8.082C250.864,154.018,252.283,154.915,260.495,153.814z
		 M137.491,10.044c-0.013-0.47-0.026-0.941-0.038-1.411c-4.822,0.222-9.644,0.444-14.466,0.667c0.038,0.692,0.076,1.383,0.114,2.075
		C127.897,10.931,132.694,10.487,137.491,10.044z"/>
	<path fill="#FFFFFF" d="M123.963,0c-8.442,1.755-17.018,3.029-25.304,5.343C45.973,20.05,7.658,64.844,1.015,119.104
		c-0.2,1.637-0.67,3.241-1.015,4.86C0,82.718,0,41.473,0,0C41.321,0,82.642,0,123.963,0z"/>
	<path fill="#FFFFFF" d="M270.714,123.963c-1.079-5.804-1.961-11.654-3.268-17.406C254.408,49.179,208.997,8.142,150.68,0.915
		c-1.327-0.164-2.62-0.604-3.929-0.915c41.245,0,82.491,0,123.963,0C270.714,41.321,270.714,82.642,270.714,123.963z"/>
	<path fill="#FFFFFF" d="M0,147.662c1.079,5.804,1.961,11.654,3.268,17.406c13.038,57.378,58.449,98.415,116.766,105.642
		c1.327,0.164,2.62,0.604,3.929,0.915c-41.245,0-82.491,0-123.963,0C0,230.305,0,188.984,0,147.662z"/>
	<path fill="#FFFFFF" d="M146.751,271.626c8.442-1.755,17.018-3.03,25.304-5.343c52.686-14.707,91.001-59.501,97.645-113.761
		c0.2-1.637,0.67-3.241,1.015-4.86c0,41.245,0,82.491,0,123.963C229.393,271.626,188.072,271.626,146.751,271.626z"/>
	<path fill="#FFFFFF" d="M108.482,93.971c-0.241-5.812-5.295-9.872-5.119-16.579c1.602,0.824,2.462,0.983,2.824,1.495
		c4.618,6.524,10.237,12.615,13.471,19.778c4.505,9.979,11.659,15.13,21.928,16.925c13.668,2.39,26.071,7.321,36.526,16.859
		c3.787,3.455,7.885,7.303,14.101,5.626c0.799-0.216,2.616,1.425,3.177,2.585c2.123,4.387,0.158,10.974-3.31,14.542
		c-1.776,1.828-2.879,4.489-3.758,6.961c-0.95,2.67-1.338,5.548-1.85,8.358c-0.145,0.797-0.083,1.769,0.248,2.494
		c2.519,5.515,4.779,11.193,7.825,16.408c2.237,3.83,5.207,7.398,8.466,10.418c3.061,2.836,3.565,6.044,2.669,9.467
		c-0.831,3.177-2.189,6.37-3.99,9.113c-7.915,12.052-15.98,24.01-24.255,35.817c-1.135,1.62-3.641,2.576-5.705,3.205
		C109.71,276.344,42.9,244.523,18.34,184.457C-6.059,124.783,17.475,56.248,73.066,25.245c3.54-1.974,7.318-3.521,10.985-5.267
		c3.205-1.527,4.8-0.228,5.515,2.984c0.359,1.611,0.663,3.482,1.667,4.659c5.205,6.102,3.327,12.531,0.444,18.468
		c-3.463,7.132-3.324,13.288,0.996,20.092c4.13,6.505,7.02,13.788,10.682,20.606C104.736,89.358,106.754,91.586,108.482,93.971z"/>
	<path fill="#FFFFFF" d="M260.495,153.814c-8.212,1.101-9.631,0.205-11.131-7.562c-0.849-4.397-2.227-7.592-7.564-8.082
		c-2.015-0.185-4.086-2.501-5.657-4.267c-4.944-5.558-10.73-7.561-18.004-5.45c-1.273,0.369-3.307-0.14-4.337-1.014
		c-2.886-2.447-5.772-2.544-8.808-0.754c-2.61,1.539-4.95,3.56-7.624,4.958c-2.497,1.305-5.203,2.58-7.945,2.968
		c-5.464,0.773-7.304-0.829-8.508-6.346c-0.356-1.63-0.573-3.289-0.873-4.931c-0.751-4.104-3.033-5.909-7.364-5.565
		c-5.483,0.435-6.434-0.928-5.139-6.381c0.491-2.067,1.338-4.136,1.336-6.203c-0.002-1.349-1.012-3.582-1.979-3.832
		c-1.34-0.346-3.289,0.479-4.577,1.377c-2.673,1.864-4.808,4.669-7.664,6.061c-4.212,2.053-7.528,0.375-9.773-3.812
		c-2.71-5.055-3.567-10.297-1.737-15.821c2.023-6.107,6.792-8.51,13.11-7.042c1.406,0.327,3.402-0.046,4.576-0.875
		c5.666-3.998,12.64-2.332,15.767,3.066c0.984,1.698,2.159,3.342,3.52,4.745c0.801,0.825,2.141,1.126,3.239,1.663
		c0.035-1.256,0.431-2.641,0.035-3.741c-0.973-2.704-2.429-5.231-3.474-7.914c-1.928-4.95-1.251-6.718,3.499-8.898
		c2.874-1.319,3.647-3.554,3.136-6.333c-0.92-4.995-1.717-9.799,4.587-12.082c0.581-0.21,0.889-1.508,1.094-2.356
		c0.643-2.653,2.178-3.573,4.947-3.571c1.591,0.001,3.183-1.274,4.203-1.724c-2.701-1.758-4.973-2.763-6.595-4.409
		c-2.162-2.194-3.971-3.983-6.867-0.403c-0.147-0.554-0.295-1.108-0.442-1.662c1.856-0.863,3.665-1.858,5.584-2.545
		c1.461-0.523,3.061-0.656,4.6-0.963c-0.794-1.996-1.164-5.358-2.454-5.759c-6.694-2.08-11.39-8.467-19.392-8.054
		c-3.869,0.199-7.879-2.335-12.425-3.829c2.285,5.859,4.177,10.71,6.068,15.56c-0.38,0.339-0.76,0.678-1.141,1.016
		c-7.418-3.559-12.981-11.294-22.44-10.259c-0.199-0.402-0.397-0.803-0.596-1.205c3.599-3.275,7.198-6.55,11.563-10.521
		C224.103,19.822,270.998,87.43,260.495,153.814z"/>
	<path fill="#FFFFFF" d="M137.491,10.044c-4.797,0.443-9.593,0.887-14.39,1.33c-0.038-0.692-0.076-1.383-0.114-2.075
		c4.822-0.222,9.644-0.444,14.466-0.667C137.465,9.103,137.478,9.574,137.491,10.044z"/>
</g>
</svg>
