<?xml version="1.0" encoding="utf-8"?>
<!-- Generator: Adobe Illustrator 17.0.0, SVG Export Plug-In . SVG Version: 6.00 Build 0)  -->
<!DOCTYPE svg PUBLIC "-//W3C//DTD SVG 1.1//EN" "http://www.w3.org/Graphics/SVG/1.1/DTD/svg11.dtd">
<svg version="1.1" id="Layer_1" xmlns="http://www.w3.org/2000/svg" xmlns:xlink="http://www.w3.org/1999/xlink" x="0px" y="0px"
	 width="348.282px" height="356.429px" viewBox="0 0 348.282 356.429" enable-background="new 0 0 348.282 356.429"
	 xml:space="preserve">
<g>
	<path fill="#FFFFFF" d="M75.099,30.803c2.22,0.742,3.59,1.424,5.029,1.637c3.787,0.56,6.785-1.625,7.015-5.546
		c0.155-2.654,1.437-3.939,3.524-4.906c7.05-3.269,14.079-6.585,21.193-9.708c0.861-0.378,2.488-0.059,3.254,0.562
		c5.057,4.101,10.04,2.537,11.913-3.75c0.29-0.972,1.316-2.17,2.242-2.439c11.742-3.421,23.798-4.995,35.979-5.65
		c0.78-0.042,1.947,0.746,2.365,1.475c1.483,2.58,3.379,4.624,6.458,4.703c3.251,0.083,5.203-2.023,6.729-4.719
		c0.41-0.725,1.638-1.54,2.375-1.442c10.171,1.348,20.319,2.866,30.48,4.294c1.498,0.21,2.128,0.817,2.418,2.399
		c0.528,2.888,2.064,5.292,5.118,6.051c2.912,0.724,5.17-0.653,7.217-2.675c0.583-0.575,1.957-1.001,2.648-0.716
		c7.827,3.224,15.605,6.567,23.345,9.994c0.651,0.288,1.35,1.438,1.31,2.147c-0.191,3.401,0.271,6.511,3.583,8.223
		c3.167,1.637,5.99,0.391,8.566-1.64c0.151-0.119,0.355-0.172,1.331-0.628c7.253,5.879,14.828,11.981,22.32,18.183
		c0.45,0.373,0.586,1.703,0.292,2.307c-2.795,5.739,1.453,11.655,8.55,9.884c1.112-0.278,2.954,0.357,3.774,1.22
		c11.281,11.874,20.385,25.331,27.031,40.239c27.099,60.78,22.009,119.001-15.086,174.181c-5.555,8.263-12.923,15.319-19.556,22.843
		c-8.177,9.275-18.192,16.352-28.368,23.19c-1.058,0.711-2.724,0.943-4.03,0.777c-3.912-0.497-6.225,0.886-7.673,4.572
		c-0.481,1.225-1.518,2.617-2.661,3.135c-7.348,3.329-14.799,6.43-22.21,9.622c-1.457,0.628-2.567,0.652-4.011-0.51
		c-3.838-3.086-8.003-2.006-9.898,2.551c-0.803,1.931-1.868,2.754-3.859,3.032c-10.163,1.419-20.305,2.984-30.474,4.353
		c-0.875,0.118-2.286-0.569-2.783-1.322c-3.499-5.302-8.39-5.646-11.987-0.474c-1.167,1.678-2.293,2.094-4.148,1.83
		c-9.273-1.317-18.568-2.494-27.825-3.911c-1.044-0.16-2.34-1.336-2.775-2.357c-2.145-5.035-6.58-6.403-10.746-2.872
		c-1.385,1.174-2.47,1.334-3.988,0.689c-7.975-3.389-15.987-6.694-23.915-10.188c-0.941-0.415-1.802-1.707-2.101-2.762
		c-1.198-4.224-4.422-6.066-8.73-4.99c-1.038,0.259-2.498,0.089-3.38-0.479c-10.51-6.768-20.176-14.513-29.096-23.364
		c-9.689-9.614-18.347-19.939-25.505-31.506C4.897,231.668-3.419,194.032,1.265,153.532c2.481-21.451,8.99-41.652,19.205-60.642
		c5.668-10.536,12.214-20.514,19.989-29.648c0.924-1.086,1.645-1.797,3.436-1.513c6.559,1.039,9.568-2.459,8.261-8.975
		c-0.199-0.993,0.311-2.582,1.065-3.241C60.573,43.088,68.046,36.802,75.099,30.803z M174.075,27.156
		C92.298,27.67,24.534,93.072,26.716,178.651c2.031,79.668,66.13,142.985,147.295,143.101
		c81.053,0.117,148.6-65.092,147.266-149.762C320.007,91.362,255.279,27.897,174.075,27.156z"/>
	<path fill="#FFFFFF" d="M47.103,233.652c6.314-0.42,12.57-0.217,18.571-1.358c15.178-2.887,23.961-13.785,25.025-29.699
		c0.611-9.126-0.283-18.132-3.932-26.407c-5.546-12.579-13.596-23.139-28.028-26.395c-6.12-1.381-11.442,0.462-15.231,5.817
		c-1.46,2.064-3.08,2.38-8.729,1.803c0.852-4.663,1.555-9.328,2.574-13.924c2.736-12.338,7.15-24.068,13.218-35.158
		c0.428-0.782,1.277-1.334,1.93-1.993c0.62,0.661,1.381,1.237,1.837,1.996c2.586,4.307,6.943,5.478,11.324,5.57
		c7.358,0.155,14.737-0.278,22.095-0.676c21.314-1.152,42.614-2.582,63.934-3.581c26.56-1.244,53.1-0.059,79.614,1.493
		c14.523,0.85,29.012,2.293,43.538,3.068c4.296,0.229,8.78-0.474,12.953-1.59c2.229-0.596,3.993-2.968,5.939-4.572
		c0.624-0.514,1.19-1.619,1.727-1.584c0.643,0.042,1.424,0.905,1.803,1.599c6.547,11.985,11.201,24.676,13.936,38.055
		c0.756,3.696,1.301,7.436,1.969,11.306c-4.051,0.473-7.203,0.564-9.952-3.226c-3.235-4.459-8.422-5.464-13.783-4.499
		c-8.867,1.597-15.412,6.924-20.69,13.796c-10.601,13.805-13.886,29.425-10.231,46.36c2.698,12.501,12.346,21.152,25.125,22.719
		c5.685,0.697,11.46,0.663,17.336,0.969c-3.676,8.326-8.229,16.413-14.018,23.642c-5.594,6.985-11.801,13.487-17.887,20.064
		c-0.87,0.94-2.549,1.486-3.894,1.571c-6.278,0.397-11.973-0.351-17.785-3.972c-10.008-6.235-21.718-8.293-33.27-10.135
		c-29.541-4.711-59.027-4.406-88.384,1.508c-10.001,2.015-19.966,4.548-28.476,10.409c-5.358,3.69-10.959,1.611-16.446,2.134
		c-0.448,0.043-1.012-0.572-1.441-0.968c-13.58-12.527-24.403-27.085-32.237-43.839C47.061,233.792,47.097,233.577,47.103,233.652z
		 M143.851,181.261c-0.506,16.518,12.455,30.354,28.672,31.146c15.598,0.762,32.485-11.598,31.642-32.13
		c-0.553-13.484-12.069-27.574-29.471-28.217C158.382,151.457,143.32,166.022,143.851,181.261z"/>
	<path fill="#FFFFFF" d="M174.102,159.023c13.541,0.215,23.048,11.193,23.088,23.413c0.042,12.617-10.591,23.041-23.179,23.046
		c-12.677,0.005-23.866-10.715-23.139-23.235C151.662,168.641,160.026,159.672,174.102,159.023z"/>
</g>
</svg>
